P2
40 32
255
203 210 218 221 223 225 227 228 224 219 222 234 225 222 224 202 182 183 181 200 206 192 180 179 180 181 178 173 169 169 170 167 160 155 149 149 145 136 129 125 220 223 221 223 224 224 227 230 227 223 224 230 217 211 211 195 180 180 179 197 202 188 179 180 182 181 175 169 165 166 168 164 157 152 152 147 142 136 131 128 225 225 225 226 225 225 227 228 224 218 220 221 207 199 200 190 179 175 178 189 191 183 178 178 179 179 171 167 164 166 166 161 155 153 153 147 142 138 132 128 230 228 228 228 227 225 225 224 218 210 212 214 201 194 193 186 178 172 178 182 181 178 177 175 174 176 170 167 166 167 166 160 156 155 153 147 144 142 134 125 229 228 225 227 228 223 221 219 207 203 203 206 196 187 184 179 171 172 169 172 173 176 174 171 173 169 169 160 163 165 160 160 163 154 154 149 147 141 133 134 231 230 230 231 228 213 207 197 193 190 191 185 185 180 177 177 170 168 165 169 168 169 168 167 169 166 153 164 161 155 161 161 156 158 157 153 148 147 142 138 228 225 228 221 210 207 184 177 172 167 178 177 184 173 164 171 173 168 161 165 160 160 163 163 164 161 159 154 151 156 153 146 146 154 153 153 145 148 147 139 225 223 215 209 171 130 117 121 136 143 149 159 171 172 173 170 172 166 163 163 154 154 158 157 156 153 149 148 146 143 133 139 143 141 146 153 146 147 148 139 225 219 200 174 107 70 54 47 61 114 135 150 153 170 189 171 171 169 169 167 157 154 153 148 147 144 133 130 109 90 74 76 85 105 124 142 145 147 147 142 216 202 176 121 119 121 90 40 41 59 104 145 165 177 198 179 174 168 171 170 165 161 155 150 145 132 113 70 40 46 41 54 58 54 81 106 130 139 144 148 207 188 157 114 196 147 81 17 90 98 62 128 193 206 213 190 174 166 172 172 171 169 163 159 138 97 48 50 72 74 39 78 108 85 62 83 122 139 146 155 208 192 159 101 150 126 58 26 82 110 83 131 214 233 227 191 169 176 175 173 172 171 169 165 124 55 52 86 113 91 40 83 128 124 79 93 134 150 154 161 212 198 168 109 101 120 61 33 93 109 85 156 225 244 223 195 178 175 174 171 176 178 170 164 91 44 76 101 116 72 7 67 128 117 84 116 147 157 157 160 212 196 179 136 101 103 94 89 105 93 80 159 231 245 223 198 181 170 173 179 178 177 171 141 88 53 73 110 119 87 29 75 107 99 115 136 156 161 161 164 212 195 185 176 152 133 119 104 100 97 97 173 237 240 216 195 179 167 171 178 178 181 166 99 76 75 62 89 101 99 79 100 113 121 146 154 161 163 164 166 211 196 187 177 173 171 169 165 154 143 145 202 244 236 207 187 177 171 172 175 178 181 159 97 92 104 98 103 114 121 135 135 145 155 160 161 163 164 166 168 211 200 187 183 187 182 174 175 170 164 191 223 242 228 197 175 169 173 176 176 180 176 160 145 142 134 149 148 153 150 161 162 167 164 165 165 166 168 170 170 213 204 200 195 189 184 183 180 182 196 215 232 237 219 190 169 166 173 178 172 178 175 163 174 171 160 165 165 166 171 165 169 168 169 167 168 169 171 171 169 216 209 204 204 196 191 190 187 199 222 224 238 234 207 180 168 169 175 174 168 172 174 167 174 174 175 173 171 168 177 170 169 165 173 168 169 169 169 169 168 218 211 209 214 205 194 193 206 220 215 220 234 224 187 160 158 164 168 169 172 170 169 174 179 180 179 175 177 172 166 171 172 169 168 168 169 168 167 168 169 220 218 215 223 215 203 206 212 214 219 219 234 193 155 142 147 153 151 161 162 167 175 178 177 178 180 181 178 176 173 170 169 168 168 166 167 168 169 169 168 218 220 222 221 212 208 214 217 211 206 226 227 173 130 128 127 130 134 144 159 172 175 174 176 180 181 177 175 173 172 171 170 168 167 165 166 166 166 164 163 217 227 233 226 219 218 220 217 204 189 188 193 151 129 123 126 120 122 134 137 148 166 178 182 182 182 180 177 174 173 173 171 167 163 163 162 163 163 162 160 207 221 227 223 224 224 220 218 208 190 156 124 87 129 123 109 67 66 89 110 143 170 180 178 178 181 181 180 177 174 173 170 165 161 160 158 158 160 162 162 191 205 232 230 234 230 221 219 211 192 168 133 90 129 123 105 60 67 106 141 173 180 178 182 184 181 177 178 177 174 172 170 167 163 152 145 141 143 147 150 186 207 239 233 231 225 215 210 199 178 164 168 134 108 95 93 95 127 157 167 172 169 170 176 177 171 176 179 179 177 174 172 168 164 155 145 136 136 140 144 190 221 230 219 215 214 207 197 183 166 163 160 140 103 77 78 112 154 163 164 167 172 172 169 170 174 173 176 178 177 176 174 168 161 146 137 129 128 130 131 190 225 235 222 217 218 210 193 176 165 154 145 146 122 74 86 127 148 160 161 162 160 159 159 160 160 164 168 172 174 176 175 168 160 147 141 137 137 136 133 198 224 229 226 212 204 199 188 173 158 147 138 132 116 92 95 117 129 146 156 161 161 164 167 166 164 166 165 167 170 171 172 166 155 144 143 143 145 146 146 185 201 212 217 209 198 184 170 162 154 141 132 122 104 82 85 109 126 128 140 147 147 150 153 155 157 163 165 169 172 171 168 158 145 140 140 140 141 140 140 171 175 207 216 214 205 190 177 170 161 145 129 110 90 73 75 95 113 121 132 138 135 134 137 143 149 149 150 154 157 159 161 159 151 137 135 132 130 128 129 170 164 170 198 218 217 197 180 175 169 144 124 101 87 79 77 82 90 115 127 134 133 133 137 143 149 155 157 161 160 156 152 144 133 140 137 135 133 131 131 